<?xml version="1.0" encoding="utf-8"?>
<!-- Generator: Adobe Illustrator 27.3.1, SVG Export Plug-In . SVG Version: 6.00 Build 0)  -->
<svg version="1.1" id="Layer_1" xmlns="http://www.w3.org/2000/svg" xmlns:xlink="http://www.w3.org/1999/xlink" x="0px" y="0px"
	 viewBox="0 0 1853.8 738.3" style="enable-background:new 0 0 1853.8 738.3;" xml:space="preserve">
<g>
	<path d="M0,0h138.8v306.4c24.9-49.8,79.5-91,162.8-91c98.6,0,168.5,59.4,168.5,193.4v318.9H331.3V429c0-68-26.8-100.5-88.1-100.5
		c-59.4,0-104.4,36.4-104.4,110.1v289.2H0V0z"/>
	<path d="M481.6,483.6v-7.7c0-158,112-260.5,257.6-260.5c129.3,0,244.2,75.6,244.2,254.7v38.3h-361c3.8,83.3,48.8,131.2,124.5,131.2
		c64.2,0,95.8-27.8,104.4-69.9h131.2C966.2,678,880,738.3,743.1,738.3C591.8,738.3,481.6,643.5,481.6,483.6z M848.4,423.2
		c-4.8-75.6-43.1-112-109.2-112c-62.2,0-104.4,41.2-114.9,112H848.4z"/>
	<path d="M996.8,0h137.9v727.8H996.8V0z"/>
	<path d="M1173.9,0h137.9v727.8h-137.9V0z"/>
	<path d="M1326.2,482.6V475c0-157,114-259.5,264.3-259.5c150.3,0,263.3,100.5,263.3,256.6v7.7c0,158-114,258.5-264.3,258.5
		C1440.2,738.3,1326.2,638.7,1326.2,482.6z M1713.1,480.7V474c0-95.8-45-153.2-122.6-153.2c-76.6,0-122.6,55.5-122.6,151.3v7.7
		c0,95.8,44,153.2,122.6,153.2C1668.1,633,1713.1,575.5,1713.1,480.7z"/>
</g>
</svg>
